<svg xmlns="http://www.w3.org/2000/svg" viewBox="0 0 600 900" width="600" height="900" role="img" aria-label="Saltwater Almanac by Nia Bassey">
    
    <rect width="600" height="900" fill="#FBF6EE"/>
    <rect x="58" y="610" width="26" height="230" rx="13" fill="#5F7A63" opacity="1"/>
    <rect x="118" y="647" width="26" height="193" rx="13" fill="#2E4A5B" opacity="0.32"/>
    <rect x="178" y="684" width="26" height="156" rx="13" fill="#2E4A5B" opacity="0.32"/>
    <rect x="238" y="631" width="26" height="209" rx="13" fill="#5F7A63" opacity="1"/>
    <rect x="298" y="668" width="26" height="172" rx="13" fill="#2E4A5B" opacity="0.32"/>
    <rect x="358" y="615" width="26" height="225" rx="13" fill="#2E4A5B" opacity="0.32"/>
    <rect x="418" y="652" width="26" height="188" rx="13" fill="#5F7A63" opacity="1"/>
    <rect x="478" y="689" width="26" height="151" rx="13" fill="#2E4A5B" opacity="0.32"/>
    <rect x="538" y="636" width="26" height="204" rx="13" fill="#2E4A5B" opacity="0.32"/>
    <text x="300" y="170" text-anchor="middle" font-family="Josefin Sans, Futura, Helvetica, sans-serif" font-size="70" font-weight="700" letter-spacing="1.5" fill="#2E4A5B">SALTWATER</text>
    <text x="300" y="249.8" text-anchor="middle" font-family="Josefin Sans, Futura, Helvetica, sans-serif" font-size="70" font-weight="700" letter-spacing="1.5" fill="#2E4A5B">ALMANAC</text>
    <line x1="258" y1="289.8" x2="342" y2="289.8" stroke="#A8483A" stroke-width="3"/>
    <text x="300" y="331.8" text-anchor="middle" font-family="Poppins, Helvetica, sans-serif" font-size="24" letter-spacing="3.5" fill="#A8483A">NIA BASSEY</text>
    <rect x="0" y="0" width="14" height="900" fill="#000" opacity="0.16"/>
  </svg>